<svg xmlns="http://www.w3.org/2000/svg">
	<symbol stroke-width="2" fill="none" viewbox="0 0 24 24" id="sprite-add">
		<path stroke-linecap="round" stroke-linejoin="round" d="M12 4v16m8-8H4" />
	</symbol>
	<symbol stroke-width="2" fill="none" viewbox="0 0 24 24" id="sprite-delete">
		  <path stroke-linecap="round" stroke-linejoin="round" d="M19 7l-.867 12.142A2 2 0 0116.138 21H7.862a2 2 0 01-1.995-1.858L5 7m5 4v6m4-6v6m1-10V4a1 1 0 00-1-1h-4a1 1 0 00-1 1v3M4 7h16" />
	</symbol>
	
	<symbol stroke-width="2" fill="none" viewbox="0 0 24 24" id="sprite-settings">
		<path stroke-linecap="round" stroke-linejoin="round" d="M10.325 4.317c.426-1.756 2.924-1.756 3.35 0a1.724 1.724 0 002.573 1.066c1.543-.94 3.31.826 2.37 2.37a1.724 1.724 0 001.065 2.572c1.756.426 1.756 2.924 0 3.35a1.724 1.724 0 00-1.066 2.573c.94 1.543-.826 3.31-2.37 2.37a1.724 1.724 0 00-2.572 1.065c-.426 1.756-2.924 1.756-3.35 0a1.724 1.724 0 00-2.573-1.066c-1.543.94-3.31-.826-2.37-2.37a1.724 1.724 0 00-1.065-2.572c-1.756-.426-1.756-2.924 0-3.35a1.724 1.724 0 001.066-2.573c-.94-1.543.826-3.31 2.37-2.37.996.608 2.296.07 2.572-1.065z" />
		<path stroke-linecap="round" stroke-linejoin="round" d="M15 12a3 3 0 11-6 0 3 3 0 016 0z" />
	</symbol>
	<symbol stroke-width="2" fill="none" viewbox="0 0 24 24" id="sprite-ban">
		<path stroke-linecap="round" stroke-linejoin="round" d="M18.364 18.364A9 9 0 005.636 5.636m12.728 12.728A9 9 0 015.636 5.636m12.728 12.728L5.636 5.636" />
	</symbol>
	<symbol stroke-width="2" fill="none" viewbox="0 0 24 24" id="sprite-shield-check">
		<path stroke-linecap="round" stroke-linejoin="round" d="M9 12l2 2 4-4m5.618-4.016A11.955 11.955 0 0112 2.944a11.955 11.955 0 01-8.618 3.04A12.02 12.02 0 003 9c0 5.591 3.824 10.29 9 11.622 5.176-1.332 9-6.03 9-11.622 0-1.042-.133-2.052-.382-3.016z" />
	</symbol>
</svg>